<?xml version="1.0" standalone="no"?>
<!DOCTYPE svg PUBLIC "-//W3C//DTD SVG 20010904//EN"
 "http://www.w3.org/TR/2001/REC-SVG-20010904/DTD/svg10.dtd">
<svg version="1.0" xmlns="http://www.w3.org/2000/svg"
 width="1024.000000pt" height="1024.000000pt" viewBox="0 0 1024.000000 1024.000000"
 preserveAspectRatio="xMidYMid meet">

<g transform="translate(0.000000,1024.000000) scale(0.100000,-0.100000)"
fill="#000000" stroke="none">
<path d="M4820 9273 c-486 -45 -812 -119 -1190 -270 -793 -315 -1446 -847
-1913 -1559 -365 -555 -577 -1140 -653 -1799 -25 -214 -25 -693 -1 -900 119
-994 534 -1842 1238 -2530 636 -620 1414 -996 2314 -1116 298 -39 731 -37
1050 7 1633 224 2991 1447 3395 3057 89 354 124 640 124 1022 -1 299 -10 422
-55 695 -191 1161 -893 2199 -1904 2813 -530 323 -1152 522 -1800 577 -109 9
-520 11 -605 3z m710 -318 c1070 -127 1971 -645 2611 -1502 526 -702 789
-1569 740 -2433 -19 -322 -51 -545 -118 -805 -289 -1132 -1099 -2076 -2179
-2540 -60 -26 -194 -76 -299 -110 -693 -230 -1406 -253 -2130 -68 -1015 258
-1921 998 -2405 1963 -540 1076 -546 2358 -18 3415 252 503 637 972 1082 1319
470 366 1051 624 1634 726 103 18 319 43 462 54 110 8 488 -4 620 -19z"/>
<path d="M6165 6409 c-93 -12 -222 -52 -315 -99 -444 -224 -651 -754 -476
-1221 50 -133 118 -240 221 -344 190 -193 398 -289 655 -302 271 -13 510 80
711 277 178 175 273 368 298 607 19 180 -18 382 -98 542 -152 300 -442 503
-774 540 -107 12 -122 12 -222 0z m338 -421 c38 -15 71 -29 75 -33 4 -3 -177
-190 -402 -413 l-409 -407 -22 50 c-55 125 -65 297 -25 415 44 132 130 245
242 322 118 80 187 98 348 94 105 -2 136 -7 193 -28z m326 -310 c40 -89 54
-160 54 -263 0 -158 -58 -298 -166 -404 -76 -74 -99 -92 -157 -121 -171 -87
-377 -91 -530 -9 l-57 30 370 372 c203 205 385 391 404 415 20 23 40 42 45 42
5 0 22 -28 37 -62z"/>
<path d="M1940 5434 l0 -945 408 3 c467 5 480 7 668 98 328 159 514 461 514
834 -1 440 -285 808 -708 916 -124 31 -245 39 -579 40 l-303 0 0 -946z m735
541 c272 -58 455 -278 455 -548 0 -167 -44 -272 -159 -388 -129 -129 -243
-169 -483 -169 l-138 0 0 560 0 560 128 0 c73 0 156 -7 197 -15z"/>
<path d="M7419 6373 c0 -5 -2 -430 -2 -945 l-2 -938 528 0 527 0 0 205 0 205
-325 -7 -325 -6 0 746 0 747 -200 0 c-110 0 -200 -3 -201 -7z"/>
<path d="M3690 5430 l0 -940 205 0 205 0 0 370 0 370 330 0 330 0 0 -370 0
-370 205 0 205 0 0 940 0 940 -205 0 -205 0 0 -362 c1 -200 -1 -362 -5 -360
-3 1 -151 2 -330 2 l-325 0 0 360 0 360 -205 0 -205 0 0 -940z"/>
</g>
</svg>
